<svg width="324" height="100" viewBox="0 0 324 100" fill="none" xmlns="http://www.w3.org/2000/svg">
<g filter="url(#filter0_d_772_202)">
<path d="M51.2405 34.32L42.7285 71.696C42.5578 72.3787 42.1952 72.9333 41.6405 73.36C41.1285 73.7867 40.5312 74 39.8485 74H37.5445C36.9045 74 36.3285 73.808 35.8165 73.424C35.3045 73.04 34.9418 72.5493 34.7285 71.952L34.4725 71.12C33.9178 69.3707 33.2778 67.344 32.5525 65.04C31.8698 62.736 31.1445 60.3253 30.3765 57.808C30.3338 57.6373 30.2272 57.552 30.0565 57.552C29.9285 57.552 29.8432 57.6373 29.8005 57.808C29.2032 59.6853 28.6272 61.5627 28.0725 63.44C27.5178 65.2747 27.0058 66.9387 26.5365 68.432C26.1098 69.9253 25.7472 71.0987 25.4485 71.952C25.2778 72.5067 24.9152 72.9973 24.3605 73.424C23.8485 73.808 23.2725 74 22.6325 74H20.2645C19.5818 74 18.9632 73.7867 18.4085 73.36C17.8965 72.9333 17.5765 72.3787 17.4485 71.696L8.9365 34.32C8.76583 33.4667 8.9365 32.6347 9.4485 31.824C9.78983 31.4827 10.1525 31.2267 10.5365 31.056C10.9205 30.8427 11.3472 30.736 11.8165 30.736H13.6085C14.2912 30.736 14.8885 30.9493 15.4005 31.376C15.9552 31.8027 16.3178 32.336 16.4885 32.976L21.6725 56.144C21.7152 56.272 21.8218 56.336 21.9925 56.336C22.1632 56.336 22.2912 56.272 22.3765 56.144C22.3765 56.144 22.5045 55.6747 22.7605 54.736C23.0592 53.7973 23.4432 52.56 23.9125 51.024C24.3818 49.4453 24.9152 47.696 25.5125 45.776C26.1098 43.856 26.7072 41.9147 27.3045 39.952C27.5178 39.3547 27.8592 38.864 28.3285 38.48C28.7978 38.0533 29.3738 37.84 30.0565 37.84C30.7818 37.84 31.3792 38.0533 31.8485 38.48C32.3605 38.864 32.7018 39.376 32.8725 40.016L37.8005 56.144C37.8858 56.272 38.0138 56.336 38.1845 56.336C38.3552 56.336 38.4618 56.272 38.5045 56.144C39.0592 53.6267 39.6138 51.1307 40.1685 48.656C40.7232 46.1813 41.2352 43.8773 41.7045 41.744C42.2165 39.6107 42.6432 37.776 42.9845 36.24C43.3258 34.704 43.5605 33.616 43.6885 32.976C43.8592 32.336 44.2005 31.8027 44.7125 31.376C45.2672 30.9493 45.8858 30.736 46.5685 30.736H48.3605C48.8298 30.736 49.2565 30.8427 49.6405 31.056C50.0245 31.2267 50.3658 31.4827 50.6645 31.824C51.2618 32.592 51.4538 33.424 51.2405 34.32ZM77.6655 54.992C77.6655 56.272 77.3455 57.4667 76.7055 58.576C76.0655 59.6427 75.2122 60.5173 74.1455 61.2C73.0788 61.84 71.8842 62.16 70.5615 62.16H63.0095C62.7962 62.16 62.5828 62.2453 62.3695 62.416C62.1988 62.544 62.1135 62.7147 62.1135 62.928V65.616C62.1135 65.8293 62.1988 66.0213 62.3695 66.192C62.5828 66.3627 62.7962 66.448 63.0095 66.448H70.5615C71.3722 66.448 72.0548 66.7253 72.6095 67.28C73.2068 67.8347 73.5055 68.5387 73.5055 69.392V71.056C73.5055 71.8667 73.2068 72.5707 72.6095 73.168C72.0548 73.7227 71.3722 74 70.5615 74H61.6655C59.7028 74 58.0175 73.3173 56.6095 71.952C55.2015 70.544 54.4975 68.8373 54.4975 66.832V48.016C54.4975 46.6933 54.8175 45.4987 55.4575 44.432C56.1402 43.3653 57.0148 42.512 58.0815 41.872C59.1482 41.1893 60.3428 40.848 61.6655 40.848H70.5615C71.8842 40.848 73.0788 41.1893 74.1455 41.872C75.2122 42.512 76.0655 43.3653 76.7055 44.432C77.3455 45.4987 77.6655 46.6933 77.6655 48.016V54.992ZM70.1135 53.712V49.36C70.1135 49.104 70.0068 48.8907 69.7935 48.72C69.6228 48.5493 69.4308 48.464 69.2175 48.464H63.0095C62.7962 48.464 62.5828 48.5493 62.3695 48.72C62.1988 48.8907 62.1135 49.104 62.1135 49.36V53.712C62.1135 53.8827 62.1988 54.0533 62.3695 54.224C62.5828 54.3947 62.7962 54.48 63.0095 54.48H69.2175C69.4308 54.48 69.6228 54.3947 69.7935 54.224C70.0068 54.0533 70.1135 53.8827 70.1135 53.712ZM106.041 66.832C106.041 68.8373 105.337 70.544 103.929 71.952C102.563 73.3173 100.899 74 98.9365 74H90.0405C88.0778 74 86.3925 73.3173 84.9845 71.952C83.5765 70.544 82.8725 68.8373 82.8725 66.832V33.68C82.8725 32.8267 83.1498 32.1227 83.7045 31.568C84.3018 31.0133 85.0058 30.736 85.8165 30.736H87.6085C88.4192 30.736 89.1018 31.0133 89.6565 31.568C90.2112 32.1227 90.4885 32.8267 90.4885 33.68V40.08C90.4885 40.2933 90.5738 40.4853 90.7445 40.656C90.9578 40.784 91.1712 40.848 91.3845 40.848H98.9365C100.259 40.848 101.454 41.168 102.521 41.808C103.587 42.448 104.441 43.3227 105.081 44.432C105.721 45.4987 106.041 46.6933 106.041 48.016V66.832ZM98.4885 65.616V49.36C98.4885 48.7627 98.1898 48.464 97.5925 48.464H91.3845C91.1712 48.464 90.9578 48.5493 90.7445 48.72C90.5738 48.8907 90.4885 49.104 90.4885 49.36V65.616C90.4885 65.8293 90.5738 66.0213 90.7445 66.192C90.9578 66.3627 91.1712 66.448 91.3845 66.448H97.5925C98.1898 66.448 98.4885 66.1707 98.4885 65.616Z" fill="#1C5BFF"/>
<path d="M140.071 65.552C140.071 67.088 139.687 68.496 138.919 69.776C138.151 71.056 137.127 72.08 135.847 72.848C134.567 73.616 133.159 74 131.623 74H114.535C113.725 74 113.021 73.7227 112.423 73.168C111.869 72.5707 111.591 71.8667 111.591 71.056V33.68C111.591 32.8267 111.869 32.1227 112.423 31.568C113.021 31.0133 113.725 30.736 114.535 30.736H131.623C133.159 30.736 134.567 31.12 135.847 31.888C137.127 32.656 138.151 33.68 138.919 34.96C139.687 36.24 140.071 37.6693 140.071 39.248V65.552ZM132.455 65.552V39.248C132.455 38.6507 132.178 38.352 131.623 38.352H120.103C119.549 38.352 119.271 38.6293 119.271 39.184V65.616C119.271 66.1707 119.549 66.448 120.103 66.448H131.623C131.837 66.448 132.029 66.3627 132.199 66.192C132.37 65.9787 132.455 65.7653 132.455 65.552ZM168.447 54.992C168.447 56.272 168.127 57.4667 167.487 58.576C166.847 59.6427 165.993 60.5173 164.927 61.2C163.86 61.84 162.665 62.16 161.343 62.16H153.791C153.577 62.16 153.364 62.2453 153.151 62.416C152.98 62.544 152.895 62.7147 152.895 62.928V65.616C152.895 65.8293 152.98 66.0213 153.151 66.192C153.364 66.3627 153.577 66.448 153.791 66.448H161.343C162.153 66.448 162.836 66.7253 163.391 67.28C163.988 67.8347 164.287 68.5387 164.287 69.392V71.056C164.287 71.8667 163.988 72.5707 163.391 73.168C162.836 73.7227 162.153 74 161.343 74H152.447C150.484 74 148.799 73.3173 147.391 71.952C145.983 70.544 145.279 68.8373 145.279 66.832V48.016C145.279 46.6933 145.599 45.4987 146.239 44.432C146.921 43.3653 147.796 42.512 148.863 41.872C149.929 41.1893 151.124 40.848 152.447 40.848H161.343C162.665 40.848 163.86 41.1893 164.927 41.872C165.993 42.512 166.847 43.3653 167.487 44.432C168.127 45.4987 168.447 46.6933 168.447 48.016V54.992ZM160.895 53.712V49.36C160.895 49.104 160.788 48.8907 160.575 48.72C160.404 48.5493 160.212 48.464 159.999 48.464H153.791C153.577 48.464 153.364 48.5493 153.151 48.72C152.98 48.8907 152.895 49.104 152.895 49.36V53.712C152.895 53.8827 152.98 54.0533 153.151 54.224C153.364 54.3947 153.577 54.48 153.791 54.48H159.999C160.212 54.48 160.404 54.3947 160.575 54.224C160.788 54.0533 160.895 53.8827 160.895 53.712ZM197.206 44.624L189.27 71.888C189.099 72.4853 188.736 72.9973 188.182 73.424C187.67 73.808 187.072 74 186.39 74H184.662C183.979 74 183.382 73.808 182.87 73.424C182.358 72.9973 181.995 72.4853 181.782 71.888L173.846 44.624C173.547 43.6427 173.675 42.7893 174.23 42.064C174.912 41.2533 175.702 40.848 176.598 40.848H178.454C179.136 40.848 179.734 41.0613 180.246 41.488C180.758 41.872 181.099 42.384 181.27 43.024L185.238 56.464C185.28 56.6347 185.366 56.72 185.494 56.72C185.664 56.72 185.771 56.6347 185.814 56.464L189.782 43.024C189.995 42.384 190.336 41.872 190.806 41.488C191.318 41.0613 191.915 40.848 192.598 40.848H194.454C195.392 40.848 196.16 41.2533 196.758 42.064C197.312 42.832 197.462 43.6853 197.206 44.624Z" fill="black"/>
<path d="M230.878 35.088L213.854 65.68C213.811 65.8507 213.832 66.0213 213.918 66.192C214.003 66.3627 214.131 66.448 214.302 66.448H227.678C228.531 66.448 229.214 66.7253 229.726 67.28C230.28 67.8347 230.558 68.5387 230.558 69.392V71.056C230.558 71.8667 230.28 72.5707 229.726 73.168C229.214 73.7227 228.531 74 227.678 74H205.534C204.382 74 203.55 73.5093 203.038 72.528C202.483 71.5893 202.462 70.6293 202.974 69.648L219.998 39.056C220.083 38.8853 220.062 38.736 219.934 38.608C219.848 38.4373 219.72 38.352 219.55 38.352H206.046C205.235 38.352 204.531 38.0747 203.934 37.52C203.379 36.9227 203.102 36.2187 203.102 35.408V33.68C203.102 32.8267 203.379 32.1227 203.934 31.568C204.531 31.0133 205.235 30.736 206.046 30.736H228.254C229.32 30.736 230.174 31.2267 230.814 32.208C231.368 33.1467 231.39 34.1067 230.878 35.088ZM259.509 66.832C259.509 68.8373 258.805 70.544 257.397 71.952C256.032 73.3173 254.368 74 252.405 74H243.509C241.547 74 239.861 73.3173 238.453 71.952C237.045 70.544 236.341 68.8373 236.341 66.832V48.016C236.341 46.6933 236.661 45.4987 237.301 44.432C237.984 43.3227 238.859 42.448 239.925 41.808C240.992 41.168 242.187 40.848 243.509 40.848H252.405C253.728 40.848 254.923 41.168 255.989 41.808C257.056 42.448 257.909 43.3227 258.549 44.432C259.189 45.4987 259.509 46.6933 259.509 48.016V66.832ZM251.957 65.616V49.36C251.957 49.104 251.851 48.8907 251.637 48.72C251.467 48.5493 251.275 48.464 251.061 48.464H244.853C244.64 48.464 244.427 48.5493 244.213 48.72C244.043 48.8907 243.957 49.104 243.957 49.36V65.616C243.957 65.8293 244.043 66.0213 244.213 66.192C244.427 66.3627 244.64 66.448 244.853 66.448H251.061C251.275 66.448 251.467 66.3627 251.637 66.192C251.851 66.0213 251.957 65.8293 251.957 65.616ZM287.884 71.056C287.884 71.8667 287.607 72.5707 287.052 73.168C286.498 73.7227 285.815 74 285.004 74H283.212C282.402 74 281.719 73.7227 281.164 73.168C280.61 72.5707 280.332 71.8667 280.332 71.056V49.36C280.332 49.104 280.226 48.8907 280.012 48.72C279.842 48.5493 279.65 48.464 279.436 48.464H273.228C273.015 48.464 272.802 48.5493 272.588 48.72C272.418 48.8907 272.332 49.104 272.332 49.36V71.056C272.332 71.8667 272.055 72.5707 271.5 73.168C270.946 73.7227 270.263 74 269.452 74H267.66C266.85 74 266.146 73.7227 265.548 73.168C264.994 72.5707 264.716 71.8667 264.716 71.056V48.016C264.716 46.6933 265.036 45.4987 265.676 44.432C266.359 43.3227 267.234 42.448 268.3 41.808C269.367 41.168 270.562 40.848 271.884 40.848H280.78C282.103 40.848 283.298 41.168 284.364 41.808C285.431 42.448 286.284 43.3227 286.924 44.432C287.564 45.4987 287.884 46.6933 287.884 48.016V71.056ZM316.259 54.992C316.259 56.272 315.939 57.4667 315.299 58.576C314.659 59.6427 313.806 60.5173 312.739 61.2C311.673 61.84 310.478 62.16 309.155 62.16H301.603C301.39 62.16 301.177 62.2453 300.963 62.416C300.793 62.544 300.707 62.7147 300.707 62.928V65.616C300.707 65.8293 300.793 66.0213 300.963 66.192C301.177 66.3627 301.39 66.448 301.603 66.448H309.155C309.966 66.448 310.649 66.7253 311.203 67.28C311.801 67.8347 312.099 68.5387 312.099 69.392V71.056C312.099 71.8667 311.801 72.5707 311.203 73.168C310.649 73.7227 309.966 74 309.155 74H300.259C298.297 74 296.611 73.3173 295.203 71.952C293.795 70.544 293.091 68.8373 293.091 66.832V48.016C293.091 46.6933 293.411 45.4987 294.051 44.432C294.734 43.3653 295.609 42.512 296.675 41.872C297.742 41.1893 298.937 40.848 300.259 40.848H309.155C310.478 40.848 311.673 41.1893 312.739 41.872C313.806 42.512 314.659 43.3653 315.299 44.432C315.939 45.4987 316.259 46.6933 316.259 48.016V54.992ZM308.707 53.712V49.36C308.707 49.104 308.601 48.8907 308.387 48.72C308.217 48.5493 308.025 48.464 307.811 48.464H301.603C301.39 48.464 301.177 48.5493 300.963 48.72C300.793 48.8907 300.707 49.104 300.707 49.36V53.712C300.707 53.8827 300.793 54.0533 300.963 54.224C301.177 54.3947 301.39 54.48 301.603 54.48H307.811C308.025 54.48 308.217 54.3947 308.387 54.224C308.601 54.0533 308.707 53.8827 308.707 53.712Z" fill="#888888"/>
</g>
<defs>
<filter id="filter0_d_772_202" x="-1.69231" y="0" width="328.385" height="115.385" filterUnits="userSpaceOnUse" color-interpolation-filters="sRGB">
<feFlood flood-opacity="0" result="BackgroundImageFix"/>
<feColorMatrix in="SourceAlpha" type="matrix" values="0 0 0 0 0 0 0 0 0 0 0 0 0 0 0 0 0 0 127 0" result="hardAlpha"/>
<feOffset dy="7.69231"/>
<feGaussianBlur stdDeviation="3.84615"/>
<feComposite in2="hardAlpha" operator="out"/>
<feColorMatrix type="matrix" values="0 0 0 0 0 0 0 0 0 0 0 0 0 0 0 0 0 0 0.25 0"/>
<feBlend mode="normal" in2="BackgroundImageFix" result="effect1_dropShadow_772_202"/>
<feBlend mode="normal" in="SourceGraphic" in2="effect1_dropShadow_772_202" result="shape"/>
</filter>
</defs>
</svg>
