<svg width="1200" height="629" viewBox="0 0 1200 629" fill="none" xmlns="http://www.w3.org/2000/svg">
<rect width="1200" height="628" transform="translate(0 0.318604)" fill="#2338FC"/>
<g filter="url(#filter0_d_960_1752)">
<path d="M340.341 274.26L320.652 360.712C320.258 362.291 319.419 363.574 318.136 364.561C316.952 365.548 315.57 366.041 313.991 366.041H308.662C307.181 366.041 305.849 365.597 304.665 364.709C303.481 363.821 302.642 362.686 302.148 361.304L301.556 359.38C300.273 355.333 298.793 350.646 297.115 345.317C295.536 339.987 293.858 334.411 292.082 328.589C291.983 328.194 291.737 327.997 291.342 327.997C291.046 327.997 290.848 328.194 290.75 328.589C289.368 332.931 288.036 337.273 286.753 341.616C285.47 345.859 284.286 349.708 283.2 353.162C282.213 356.616 281.374 359.33 280.683 361.304C280.289 362.587 279.45 363.722 278.167 364.709C276.983 365.597 275.65 366.041 274.17 366.041H268.693C267.114 366.041 265.683 365.548 264.4 364.561C263.215 363.574 262.475 362.291 262.179 360.712L242.491 274.26C242.096 272.287 242.491 270.362 243.675 268.487C244.464 267.698 245.303 267.105 246.192 266.711C247.08 266.217 248.067 265.971 249.152 265.971H253.297C254.876 265.971 256.258 266.464 257.442 267.451C258.725 268.438 259.564 269.671 259.959 271.152L271.949 324.74C272.048 325.036 272.295 325.184 272.69 325.184C273.084 325.184 273.38 325.036 273.578 324.74C273.578 324.74 273.874 323.654 274.466 321.483C275.157 319.312 276.045 316.45 277.131 312.897C278.216 309.246 279.45 305.199 280.831 300.758C282.213 296.317 283.595 291.827 284.976 287.287C285.47 285.906 286.259 284.771 287.345 283.883C288.43 282.896 289.763 282.402 291.342 282.402C293.02 282.402 294.401 282.896 295.487 283.883C296.671 284.771 297.461 285.955 297.855 287.435L309.254 324.74C309.451 325.036 309.747 325.184 310.142 325.184C310.537 325.184 310.784 325.036 310.882 324.74C312.165 318.917 313.448 313.144 314.731 307.42C316.014 301.696 317.198 296.367 318.284 291.432C319.468 286.498 320.455 282.254 321.245 278.701C322.034 275.149 322.577 272.632 322.873 271.152C323.268 269.671 324.057 268.438 325.241 267.451C326.524 266.464 327.955 265.971 329.534 265.971H333.679C334.765 265.971 335.752 266.217 336.64 266.711C337.528 267.105 338.318 267.698 339.009 268.487C340.39 270.264 340.834 272.188 340.341 274.26ZM401.463 322.075C401.463 325.036 400.722 327.799 399.242 330.365C397.762 332.832 395.788 334.856 393.321 336.435C390.854 337.915 388.09 338.655 385.031 338.655H367.563C367.069 338.655 366.576 338.852 366.083 339.247C365.688 339.543 365.49 339.938 365.49 340.431V346.649C365.49 347.142 365.688 347.586 366.083 347.981C366.576 348.376 367.069 348.573 367.563 348.573H385.031C386.906 348.573 388.485 349.215 389.768 350.498C391.15 351.781 391.84 353.409 391.84 355.383V359.232C391.84 361.107 391.15 362.735 389.768 364.117C388.485 365.4 386.906 366.041 385.031 366.041H364.454C359.915 366.041 356.016 364.462 352.76 361.304C349.503 358.047 347.874 354.1 347.874 349.461V305.94C347.874 302.88 348.615 300.117 350.095 297.65C351.674 295.183 353.697 293.209 356.164 291.728C358.632 290.149 361.395 289.36 364.454 289.36H385.031C388.09 289.36 390.854 290.149 393.321 291.728C395.788 293.209 397.762 295.183 399.242 297.65C400.722 300.117 401.463 302.88 401.463 305.94V322.075ZM383.995 319.115V309.048C383.995 308.456 383.748 307.963 383.254 307.568C382.86 307.173 382.416 306.976 381.922 306.976H367.563C367.069 306.976 366.576 307.173 366.083 307.568C365.688 307.963 365.49 308.456 365.49 309.048V319.115C365.49 319.509 365.688 319.904 366.083 320.299C366.576 320.694 367.069 320.891 367.563 320.891H381.922C382.416 320.891 382.86 320.694 383.254 320.299C383.748 319.904 383.995 319.509 383.995 319.115ZM467.095 349.461C467.095 354.1 465.466 358.047 462.21 361.304C459.052 364.462 455.203 366.041 450.663 366.041H430.086C425.547 366.041 421.648 364.462 418.392 361.304C415.135 358.047 413.507 354.1 413.507 349.461V272.78C413.507 270.806 414.148 269.178 415.431 267.895C416.813 266.612 418.441 265.971 420.316 265.971H424.461C426.336 265.971 427.915 266.612 429.198 267.895C430.481 269.178 431.123 270.806 431.123 272.78V287.583C431.123 288.077 431.32 288.521 431.715 288.916C432.208 289.212 432.702 289.36 433.195 289.36H450.663C453.722 289.36 456.486 290.1 458.953 291.58C461.42 293.061 463.394 295.084 464.874 297.65C466.355 300.117 467.095 302.88 467.095 305.94V349.461ZM449.627 346.649V309.048C449.627 307.667 448.936 306.976 447.554 306.976H433.195C432.702 306.976 432.208 307.173 431.715 307.568C431.32 307.963 431.123 308.456 431.123 309.048V346.649C431.123 347.142 431.32 347.586 431.715 347.981C432.208 348.376 432.702 348.573 433.195 348.573H447.554C448.936 348.573 449.627 347.932 449.627 346.649Z" fill="#202020"/>
</g>
<g filter="url(#filter1_d_960_1752)">
<path d="M548.122 346.501C548.122 350.054 547.234 353.31 545.457 356.271C543.681 359.232 541.312 361.6 538.352 363.377C535.391 365.153 532.134 366.041 528.581 366.041H489.056C487.181 366.041 485.553 365.4 484.171 364.117C482.888 362.735 482.247 361.107 482.247 359.232V272.78C482.247 270.806 482.888 269.178 484.171 267.895C485.553 266.612 487.181 265.971 489.056 265.971H528.581C532.134 265.971 535.391 266.859 538.352 268.635C541.312 270.412 543.681 272.78 545.457 275.741C547.234 278.701 548.122 282.008 548.122 285.659V346.501ZM530.506 346.501V285.659C530.506 284.277 529.864 283.587 528.581 283.587H501.935C500.652 283.587 500.011 284.228 500.011 285.511V346.649C500.011 347.932 500.652 348.573 501.935 348.573H528.581C529.075 348.573 529.519 348.376 529.914 347.981C530.308 347.488 530.506 346.994 530.506 346.501ZM613.755 322.075C613.755 325.036 613.015 327.799 611.535 330.365C610.054 332.832 608.08 334.856 605.613 336.435C603.146 337.915 600.383 338.655 597.323 338.655H579.855C579.362 338.655 578.868 338.852 578.375 339.247C577.98 339.543 577.783 339.938 577.783 340.431V346.649C577.783 347.142 577.98 347.586 578.375 347.981C578.868 348.376 579.362 348.573 579.855 348.573H597.323C599.198 348.573 600.777 349.215 602.06 350.498C603.442 351.781 604.133 353.409 604.133 355.383V359.232C604.133 361.107 603.442 362.735 602.06 364.117C600.777 365.4 599.198 366.041 597.323 366.041H576.747C572.207 366.041 568.309 364.462 565.052 361.304C561.795 358.047 560.167 354.1 560.167 349.461V305.94C560.167 302.88 560.907 300.117 562.387 297.65C563.966 295.183 565.99 293.209 568.457 291.728C570.924 290.149 573.687 289.36 576.747 289.36H597.323C600.383 289.36 603.146 290.149 605.613 291.728C608.08 293.209 610.054 295.183 611.535 297.65C613.015 300.117 613.755 302.88 613.755 305.94V322.075ZM596.287 319.115V309.048C596.287 308.456 596.04 307.963 595.547 307.568C595.152 307.173 594.708 306.976 594.215 306.976H579.855C579.362 306.976 578.868 307.173 578.375 307.568C577.98 307.963 577.783 308.456 577.783 309.048V319.115C577.783 319.509 577.98 319.904 578.375 320.299C578.868 320.694 579.362 320.891 579.855 320.891H594.215C594.708 320.891 595.152 320.694 595.547 320.299C596.04 319.904 596.287 319.509 596.287 319.115ZM680.275 298.094L661.919 361.156C661.524 362.538 660.686 363.722 659.403 364.709C658.218 365.597 656.837 366.041 655.258 366.041H651.261C649.682 366.041 648.3 365.597 647.116 364.709C645.932 363.722 645.093 362.538 644.599 361.156L626.243 298.094C625.552 295.824 625.848 293.85 627.131 292.172C628.71 290.297 630.536 289.36 632.608 289.36H636.901C638.48 289.36 639.862 289.853 641.046 290.84C642.231 291.728 643.02 292.913 643.415 294.393L652.593 325.48C652.692 325.875 652.889 326.072 653.185 326.072C653.58 326.072 653.827 325.875 653.925 325.48L663.103 294.393C663.597 292.913 664.386 291.728 665.472 290.84C666.656 289.853 668.038 289.36 669.617 289.36H673.91C676.081 289.36 677.857 290.297 679.239 292.172C680.522 293.949 680.867 295.923 680.275 298.094Z" fill="white"/>
</g>
<g filter="url(#filter2_d_960_1752)">
<path d="M760.473 276.037L721.096 346.797C720.997 347.192 721.046 347.586 721.244 347.981C721.441 348.376 721.737 348.573 722.132 348.573H753.071C755.045 348.573 756.624 349.215 757.808 350.498C759.091 351.781 759.732 353.409 759.732 355.383V359.232C759.732 361.107 759.091 362.735 757.808 364.117C756.624 365.4 755.045 366.041 753.071 366.041H701.851C699.187 366.041 697.262 364.906 696.078 362.636C694.795 360.465 694.746 358.245 695.93 355.975L735.307 285.215C735.504 284.82 735.455 284.475 735.159 284.179C734.961 283.784 734.665 283.587 734.271 283.587H703.036C701.16 283.587 699.532 282.945 698.15 281.662C696.867 280.28 696.226 278.652 696.226 276.777V272.78C696.226 270.806 696.867 269.178 698.15 267.895C699.532 266.612 701.16 265.971 703.036 265.971H754.403C756.87 265.971 758.844 267.105 760.325 269.375C761.607 271.546 761.657 273.767 760.473 276.037ZM826.698 349.461C826.698 354.1 825.07 358.047 821.813 361.304C818.655 364.462 814.806 366.041 810.266 366.041H789.69C785.15 366.041 781.252 364.462 777.995 361.304C774.738 358.047 773.11 354.1 773.11 349.461V305.94C773.11 302.88 773.85 300.117 775.33 297.65C776.909 295.084 778.932 293.061 781.4 291.58C783.867 290.1 786.63 289.36 789.69 289.36H810.266C813.326 289.36 816.089 290.1 818.556 291.58C821.023 293.061 822.997 295.084 824.477 297.65C825.958 300.117 826.698 302.88 826.698 305.94V349.461ZM809.23 346.649V309.048C809.23 308.456 808.983 307.963 808.49 307.568C808.095 307.173 807.651 306.976 807.158 306.976H792.798C792.305 306.976 791.811 307.173 791.318 307.568C790.923 307.963 790.726 308.456 790.726 309.048V346.649C790.726 347.142 790.923 347.586 791.318 347.981C791.811 348.376 792.305 348.573 792.798 348.573H807.158C807.651 348.573 808.095 348.376 808.49 347.981C808.983 347.586 809.23 347.142 809.23 346.649ZM892.33 359.232C892.33 361.107 891.689 362.735 890.406 364.117C889.123 365.4 887.544 366.041 885.669 366.041H881.524C879.648 366.041 878.069 365.4 876.786 364.117C875.504 362.735 874.862 361.107 874.862 359.232V309.048C874.862 308.456 874.615 307.963 874.122 307.568C873.727 307.173 873.283 306.976 872.79 306.976H858.43C857.937 306.976 857.443 307.173 856.95 307.568C856.555 307.963 856.358 308.456 856.358 309.048V359.232C856.358 361.107 855.716 362.735 854.433 364.117C853.15 365.4 851.571 366.041 849.696 366.041H845.551C843.676 366.041 842.048 365.4 840.666 364.117C839.383 362.735 838.742 361.107 838.742 359.232V305.94C838.742 302.88 839.482 300.117 840.962 297.65C842.541 295.084 844.565 293.061 847.032 291.58C849.499 290.1 852.262 289.36 855.322 289.36H875.898C878.958 289.36 881.721 290.1 884.188 291.58C886.655 293.061 888.629 295.084 890.11 297.65C891.59 300.117 892.33 302.88 892.33 305.94V359.232ZM957.962 322.075C957.962 325.036 957.222 327.799 955.742 330.365C954.261 332.832 952.287 334.856 949.82 336.435C947.353 337.915 944.59 338.655 941.53 338.655H924.062C923.569 338.655 923.076 338.852 922.582 339.247C922.187 339.543 921.99 339.938 921.99 340.431V346.649C921.99 347.142 922.187 347.586 922.582 347.981C923.076 348.376 923.569 348.573 924.062 348.573H941.53C943.405 348.573 944.984 349.215 946.267 350.498C947.649 351.781 948.34 353.409 948.34 355.383V359.232C948.34 361.107 947.649 362.735 946.267 364.117C944.984 365.4 943.405 366.041 941.53 366.041H920.954C916.414 366.041 912.516 364.462 909.259 361.304C906.002 358.047 904.374 354.1 904.374 349.461V305.94C904.374 302.88 905.114 300.117 906.594 297.65C908.173 295.183 910.197 293.209 912.664 291.728C915.131 290.149 917.894 289.36 920.954 289.36H941.53C944.59 289.36 947.353 290.149 949.82 291.728C952.287 293.209 954.261 295.183 955.742 297.65C957.222 300.117 957.962 302.88 957.962 305.94V322.075ZM940.494 319.115V309.048C940.494 308.456 940.247 307.963 939.754 307.568C939.359 307.173 938.915 306.976 938.422 306.976H924.062C923.569 306.976 923.076 307.173 922.582 307.568C922.187 307.963 921.99 308.456 921.99 309.048V319.115C921.99 319.509 922.187 319.904 922.582 320.299C923.076 320.694 923.569 320.891 924.062 320.891H938.422C938.915 320.891 939.359 320.694 939.754 320.299C940.247 319.904 940.494 319.509 940.494 319.115Z" fill="#DDDDDD"/>
</g>
<defs>
<filter id="filter0_d_960_1752" x="223.394" y="265.97" width="262.205" height="137.079" filterUnits="userSpaceOnUse" color-interpolation-filters="sRGB">
<feFlood flood-opacity="0" result="BackgroundImageFix"/>
<feColorMatrix in="SourceAlpha" type="matrix" values="0 0 0 0 0 0 0 0 0 0 0 0 0 0 0 0 0 0 127 0" result="hardAlpha"/>
<feOffset dy="18.5042"/>
<feGaussianBlur stdDeviation="9.2521"/>
<feComposite in2="hardAlpha" operator="out"/>
<feColorMatrix type="matrix" values="0 0 0 0 0 0 0 0 0 0 0 0 0 0 0 0 0 0 0.25 0"/>
<feBlend mode="normal" in2="BackgroundImageFix" result="effect1_dropShadow_960_1752"/>
<feBlend mode="normal" in="SourceGraphic" in2="effect1_dropShadow_960_1752" result="shape"/>
</filter>
<filter id="filter1_d_960_1752" x="463.742" y="265.97" width="235.925" height="137.079" filterUnits="userSpaceOnUse" color-interpolation-filters="sRGB">
<feFlood flood-opacity="0" result="BackgroundImageFix"/>
<feColorMatrix in="SourceAlpha" type="matrix" values="0 0 0 0 0 0 0 0 0 0 0 0 0 0 0 0 0 0 127 0" result="hardAlpha"/>
<feOffset dy="18.5042"/>
<feGaussianBlur stdDeviation="9.2521"/>
<feComposite in2="hardAlpha" operator="out"/>
<feColorMatrix type="matrix" values="0 0 0 0 0 0 0 0 0 0 0 0 0 0 0 0 0 0 0.25 0"/>
<feBlend mode="normal" in2="BackgroundImageFix" result="effect1_dropShadow_960_1752"/>
<feBlend mode="normal" in="SourceGraphic" in2="effect1_dropShadow_960_1752" result="shape"/>
</filter>
<filter id="filter2_d_960_1752" x="675.649" y="265.97" width="300.817" height="137.079" filterUnits="userSpaceOnUse" color-interpolation-filters="sRGB">
<feFlood flood-opacity="0" result="BackgroundImageFix"/>
<feColorMatrix in="SourceAlpha" type="matrix" values="0 0 0 0 0 0 0 0 0 0 0 0 0 0 0 0 0 0 127 0" result="hardAlpha"/>
<feOffset dy="18.5042"/>
<feGaussianBlur stdDeviation="9.2521"/>
<feComposite in2="hardAlpha" operator="out"/>
<feColorMatrix type="matrix" values="0 0 0 0 0 0 0 0 0 0 0 0 0 0 0 0 0 0 0.25 0"/>
<feBlend mode="normal" in2="BackgroundImageFix" result="effect1_dropShadow_960_1752"/>
<feBlend mode="normal" in="SourceGraphic" in2="effect1_dropShadow_960_1752" result="shape"/>
</filter>
</defs>
</svg>
