<svg width="27" height="27" viewBox="0 0 27 27" fill="none" xmlns="http://www.w3.org/2000/svg">
<path d="M13.5006 8.50537C10.8142 8.50537 8.62539 10.694 8.62539 13.3804C8.62539 16.0667 10.8142 18.2554 13.5006 18.2554C16.1871 18.2554 18.3759 16.0667 18.3759 13.3804C18.3759 10.694 16.1871 8.50537 13.5006 8.50537ZM26.0137 12.5933L21.2045 10.1913L22.9058 5.09287C23.1343 4.40225 22.4792 3.74717 21.7936 3.98076L16.6949 5.68193L14.2878 0.867871C13.9628 0.217871 13.0385 0.217871 12.7135 0.867871L10.3114 5.67686L5.20765 3.97568C4.51699 3.74717 3.86188 4.40225 4.09549 5.08779L5.79674 10.1862L0.987524 12.5933C0.337492 12.9183 0.337492 13.8425 0.987524 14.1675L5.79674 16.5694L4.09549 21.6729C3.86696 22.3636 4.52207 23.0187 5.20765 22.7851L10.3063 21.0839L12.7084 25.8929C13.0334 26.5429 13.9577 26.5429 14.2827 25.8929L16.6848 21.0839L21.7835 22.7851C22.4741 23.0136 23.1292 22.3585 22.8956 21.6729L21.1944 16.5745L26.0036 14.1726C26.6638 13.8425 26.6638 12.9183 26.0137 12.5933ZM18.0966 17.9761C15.5624 20.5101 11.4388 20.5101 8.9047 17.9761C6.3706 15.4421 6.3706 11.3187 8.9047 8.78467C11.4388 6.25068 15.5624 6.25068 18.0966 8.78467C20.6307 11.3187 20.6307 15.4421 18.0966 17.9761Z" fill="white"/>
</svg>
