<svg width="293" height="286" viewBox="0 0 293 286" fill="none" xmlns="http://www.w3.org/2000/svg">
<g filter="url(#filter0_d_774_210)">
<path d="M116.993 90.2192L97.3045 176.671C96.9097 178.25 96.0708 179.533 94.7879 180.52C93.6036 181.507 92.222 182 90.643 182H85.3137C83.8334 182 82.5011 181.556 81.3168 180.668C80.1326 179.779 79.2937 178.645 78.8003 177.263L78.2081 175.338C76.9252 171.292 75.4448 166.605 73.7671 161.275C72.1881 155.946 70.5104 150.37 68.734 144.547C68.6353 144.153 68.3886 143.955 67.9938 143.955C67.6977 143.955 67.5004 144.153 67.4017 144.547C66.02 148.89 64.6877 153.232 63.4048 157.574C62.1218 161.818 60.9375 165.667 59.852 169.121C58.8651 172.575 58.0262 175.289 57.3354 177.263C56.9406 178.546 56.1018 179.681 54.8188 180.668C53.6345 181.556 52.3022 182 50.8219 182H45.3447C43.7656 182 42.3346 181.507 41.0517 180.52C39.8674 179.533 39.1273 178.25 38.8312 176.671L19.1427 90.2192C18.748 88.2454 19.1427 86.3209 20.327 84.4458C21.1165 83.6563 21.9554 83.0642 22.8436 82.6694C23.7318 82.176 24.7186 81.9293 25.8042 81.9293H29.9492C31.5282 81.9293 32.9098 82.4227 34.0941 83.4096C35.3771 84.3965 36.2159 85.6301 36.6107 87.1104L48.6014 140.699C48.7001 140.995 48.9468 141.143 49.3416 141.143C49.7363 141.143 50.0324 140.995 50.2298 140.699C50.2298 140.699 50.5258 139.613 51.118 137.442C51.8088 135.271 52.697 132.409 53.7826 128.856C54.8682 125.204 56.1018 121.158 57.4834 116.717C58.8651 112.276 60.2467 107.786 61.6284 103.246C62.1218 101.864 62.9113 100.73 63.9969 99.8413C65.0825 98.8545 66.4148 98.361 67.9938 98.361C69.6715 98.361 71.0532 98.8545 72.1387 99.8413C73.323 100.73 74.1125 101.914 74.5073 103.394L85.9059 140.699C86.1033 140.995 86.3993 141.143 86.7941 141.143C87.1888 141.143 87.4356 140.995 87.5342 140.699C88.8172 134.876 90.1002 129.103 91.3831 123.379C92.6661 117.655 93.8504 112.326 94.9359 107.391C96.1202 102.457 97.1071 98.213 97.8966 94.6602C98.6861 91.1074 99.2289 88.5908 99.525 87.1104C99.9197 85.6301 100.709 84.3965 101.894 83.4096C103.176 82.4227 104.607 81.9293 106.186 81.9293H110.331C111.417 81.9293 112.404 82.176 113.292 82.6694C114.18 83.0642 114.97 83.6563 115.661 84.4458C117.042 86.2222 117.486 88.1467 116.993 90.2192Z" fill="#1C5BFF"/>
<path d="M194.883 162.46C194.883 166.012 193.995 169.269 192.218 172.23C190.442 175.19 188.073 177.559 185.113 179.335C182.152 181.112 178.895 182 175.342 182H135.817C133.942 182 132.314 181.359 130.932 180.076C129.649 178.694 129.008 177.066 129.008 175.19V88.7388C129.008 86.765 129.649 85.1367 130.932 83.8537C132.314 82.5707 133.942 81.9293 135.817 81.9293H175.342C178.895 81.9293 182.152 82.8175 185.113 84.5939C188.073 86.3703 190.442 88.7388 192.218 91.6995C193.995 94.6602 194.883 97.9662 194.883 101.618V162.46ZM177.267 162.46V101.618C177.267 100.236 176.625 99.5453 175.342 99.5453H148.696C147.413 99.5453 146.772 100.187 146.772 101.47V162.608C146.772 163.891 147.413 164.532 148.696 164.532H175.342C175.836 164.532 176.28 164.335 176.675 163.94C177.07 163.446 177.267 162.953 177.267 162.46Z" fill="white"/>
<path d="M272.211 91.9956L232.834 162.756C232.735 163.15 232.785 163.545 232.982 163.94C233.179 164.335 233.475 164.532 233.87 164.532H264.809C266.783 164.532 268.362 165.174 269.546 166.456C270.829 167.739 271.471 169.368 271.471 171.342V175.19C271.471 177.066 270.829 178.694 269.546 180.076C268.362 181.359 266.783 182 264.809 182H213.589C210.925 182 209 180.865 207.816 178.595C206.533 176.424 206.484 174.204 207.668 171.934L247.045 101.174C247.242 100.779 247.193 100.433 246.897 100.137C246.7 99.7426 246.404 99.5453 246.009 99.5453H214.774C212.899 99.5453 211.27 98.9038 209.889 97.6208C208.606 96.2392 207.964 94.6108 207.964 92.7357V88.7388C207.964 86.765 208.606 85.1367 209.889 83.8537C211.27 82.5707 212.899 81.9293 214.774 81.9293H266.141C268.609 81.9293 270.582 83.0642 272.063 85.334C273.346 87.5052 273.395 89.7257 272.211 91.9956Z" fill="#888888"/>
</g>
<defs>
<filter id="filter0_d_774_210" x="0.0463352" y="81.9293" width="292.445" height="137.079" filterUnits="userSpaceOnUse" color-interpolation-filters="sRGB">
<feFlood flood-opacity="0" result="BackgroundImageFix"/>
<feColorMatrix in="SourceAlpha" type="matrix" values="0 0 0 0 0 0 0 0 0 0 0 0 0 0 0 0 0 0 127 0" result="hardAlpha"/>
<feOffset dy="18.5042"/>
<feGaussianBlur stdDeviation="9.2521"/>
<feComposite in2="hardAlpha" operator="out"/>
<feColorMatrix type="matrix" values="0 0 0 0 0 0 0 0 0 0 0 0 0 0 0 0 0 0 0.25 0"/>
<feBlend mode="normal" in2="BackgroundImageFix" result="effect1_dropShadow_774_210"/>
<feBlend mode="normal" in="SourceGraphic" in2="effect1_dropShadow_774_210" result="shape"/>
</filter>
</defs>
</svg>
